Coordinates
version=1
nRows=38
nColumns=12
inDegrees=yes

Units are S.I. units (second, meters, Newtons, ...)
Angles are in degrees

endheader
time	SC_y	SC_z	SC_x	AC_y	AC_z	AC_x	GH_y	GH_z	GH_yy	EL_x	PS_y
       0.0              -41.58          11.65          31.19          53.58          7.347         -1.354         -59.78          51.59           45.0          112.3          20.13
  0.001732              -41.58          11.66          31.19          53.59          7.345         -1.352         -59.76          51.59          45.01          112.3          20.14
  0.003464              -41.58          11.66          31.19          53.59          7.343         -1.351         -59.74          51.58          45.03          112.3          20.14
  0.005196              -41.59          11.66          31.18          53.59          7.341         -1.349         -59.72          51.58          45.05          112.3          20.14
  0.006927              -41.59          11.67          31.18          53.59          7.339         -1.347         -59.69          51.58          45.07          112.3          20.15
  0.008659              -41.59          11.67          31.18           53.6          7.336         -1.345         -59.67          51.57          45.09          112.3          20.15
   0.01039               -41.6          11.67          31.17           53.6          7.334         -1.342         -59.64          51.57          45.11          112.2          20.15
   0.01212               -41.6          11.68          31.17           53.6          7.331          -1.34         -59.61          51.57          45.13          112.2          20.16
   0.01385               -41.6          11.68          31.16           53.6          7.328         -1.337         -59.58          51.56          45.16          112.2          20.16
   0.01559              -41.61          11.69          31.16          53.61          7.325         -1.335         -59.54          51.56          45.19          112.2          20.17
   0.01732              -41.61          11.69          31.15          53.61          7.322         -1.332          -59.5          51.56          45.22          112.2          20.17
   0.01905              -41.62          11.69          31.14          53.62          7.318         -1.328         -59.46          51.55          45.25          112.2          20.18
   0.02078              -41.62           11.7          31.14          53.62          7.315         -1.325         -59.42          51.55          45.28          112.2          20.19
   0.02251              -41.63          11.71          31.13          53.62           7.31         -1.321         -59.37          51.54          45.32          112.2          20.19
   0.02425              -41.63          11.71          31.12          53.63          7.306         -1.317         -59.32          51.54          45.36          112.2           20.2
   0.02598              -41.64          11.72          31.11          53.64          7.301         -1.313         -59.27          51.53           45.4          112.2          20.21
   0.02771              -41.65          11.73           31.1          53.64          7.296         -1.308         -59.21          51.52          45.45          112.2          20.22
   0.02944              -41.66          11.74          31.09          53.65           7.29         -1.303         -59.14          51.52           45.5          112.2          20.22
   0.03117              -41.67          11.74          31.08          53.65          7.284         -1.297         -59.07          51.51          45.56          112.2          20.23
    0.0329              -41.68          11.75          31.07          53.66          7.277         -1.291         -58.99           51.5          45.62          112.1          20.25
   0.03464              -41.69          11.77          31.06          53.67           7.27         -1.284         -58.91          51.49          45.68          112.1          20.26
   0.03637               -41.7          11.78          31.04          53.68          7.261         -1.276         -58.81          51.48          45.76          112.1          20.27
    0.0381              -41.71          11.79          31.03          53.69          7.252         -1.268         -58.71          51.47          45.84          112.1          20.28
   0.03983              -41.73           11.8          31.01           53.7          7.242         -1.259         -58.59          51.46          45.93          112.1           20.3
   0.04156              -41.74          11.82          30.99          53.71          7.231         -1.249         -58.46          51.44          46.03          112.1          20.32
    0.0433              -41.76          11.84          30.97          53.73          7.218         -1.237         -58.32          51.43          46.14          112.0          20.34
   0.04503              -41.78          11.86          30.94          53.74          7.204         -1.224         -58.16          51.41          46.27          112.0          20.36
   0.04676               -41.8          11.88          30.91          53.76          7.188          -1.21         -57.98          51.39          46.41          112.0          20.39
   0.04849              -41.83          11.91          30.88          53.78           7.17         -1.194         -57.78          51.37          46.57          111.9          20.41
   0.05022              -41.86          11.94          30.84          53.81           7.15         -1.175         -57.55          51.34          46.75          111.9          20.45
   0.05196              -41.89          11.97           30.8          53.83          7.127         -1.154         -57.28          51.31          46.95          111.9          20.48
   0.05369              -41.93          12.01          30.76          53.86            7.1          -1.13         -56.98          51.28          47.19          111.8          20.53
   0.05542              -41.97          12.05           30.7           53.9           7.07         -1.102         -56.63          51.24          47.47          111.8          20.57
   0.05715              -42.02           12.1          30.64          53.94          7.034          -1.07         -56.22          51.19          47.78          111.7          20.63
   0.05888              -42.08          12.16          30.56          53.98          6.992         -1.032         -55.75          51.14          48.16          111.6           20.7
   0.06061              -42.15          12.23          30.48          54.04          6.943         -0.987         -55.18          51.08          48.59          111.5          20.78
   0.06235              -42.24          12.32          30.37          54.11          6.885        -0.9339         -54.52          51.01          49.12          111.4          20.87
   0.06408              -42.34          12.42          30.25          54.18          6.814        -0.8701         -53.72          50.92          49.74          111.3          20.98
